<mxfile host="Electron" agent="Mozilla/5.0 (Windows NT 10.0; Win64; x64) AppleWebKit/537.36 (KHTML, like Gecko) draw.io/26.2.15 Chrome/134.0.6998.205 Electron/35.2.1 Safari/537.36" version="26.2.15">
  <diagram name="第 1 页" id="velZQ4lpSZnbNas9SU_s">
    <mxGraphModel dx="1094" dy="815" grid="1" gridSize="10" guides="1" tooltips="1" connect="1" arrows="1" fold="1" page="1" pageScale="1" pageWidth="827" pageHeight="1169" math="0" shadow="0">
      <root>
        <mxCell id="0" />
        <mxCell id="1" parent="0" />
        <mxCell id="JW3XTQ6Gc6_xEJs22Doc-1" value="" style="swimlane;startSize=0;" parent="1" vertex="1">
          <mxGeometry x="270" y="260" width="420" height="580" as="geometry" />
        </mxCell>
        <mxCell id="JW3XTQ6Gc6_xEJs22Doc-6" value="&lt;font style=&quot;font-size: 20px;&quot;&gt;车位子系统&lt;/font&gt;" style="text;html=1;align=center;verticalAlign=middle;resizable=0;points=[];autosize=1;strokeColor=none;fillColor=none;" parent="JW3XTQ6Gc6_xEJs22Doc-1" vertex="1">
          <mxGeometry x="24" y="13" width="120" height="40" as="geometry" />
        </mxCell>
        <mxCell id="JW3XTQ6Gc6_xEJs22Doc-8" value="车位预约" style="ellipse;whiteSpace=wrap;html=1;" parent="JW3XTQ6Gc6_xEJs22Doc-1" vertex="1">
          <mxGeometry x="40" y="70" width="140" height="70" as="geometry" />
        </mxCell>
        <mxCell id="JW3XTQ6Gc6_xEJs22Doc-9" value="车位查询" style="ellipse;whiteSpace=wrap;html=1;" parent="JW3XTQ6Gc6_xEJs22Doc-1" vertex="1">
          <mxGeometry x="250" y="130" width="140" height="70" as="geometry" />
        </mxCell>
        <mxCell id="JW3XTQ6Gc6_xEJs22Doc-10" value="停车入位" style="ellipse;whiteSpace=wrap;html=1;" parent="JW3XTQ6Gc6_xEJs22Doc-1" vertex="1">
          <mxGeometry x="40" y="240" width="140" height="70" as="geometry" />
        </mxCell>
        <mxCell id="JW3XTQ6Gc6_xEJs22Doc-11" value="车位导航" style="ellipse;whiteSpace=wrap;html=1;" parent="JW3XTQ6Gc6_xEJs22Doc-1" vertex="1">
          <mxGeometry x="74" y="160" width="140" height="70" as="geometry" />
        </mxCell>
        <mxCell id="JW3XTQ6Gc6_xEJs22Doc-12" value="车位状态监控" style="ellipse;whiteSpace=wrap;html=1;" parent="JW3XTQ6Gc6_xEJs22Doc-1" vertex="1">
          <mxGeometry x="80" y="350" width="140" height="70" as="geometry" />
        </mxCell>
        <mxCell id="JW3XTQ6Gc6_xEJs22Doc-13" value="车位管理" style="ellipse;whiteSpace=wrap;html=1;" parent="JW3XTQ6Gc6_xEJs22Doc-1" vertex="1">
          <mxGeometry x="70" y="490" width="140" height="70" as="geometry" />
        </mxCell>
        <mxCell id="JW3XTQ6Gc6_xEJs22Doc-21" value="&amp;lt;&amp;lt;extend&amp;gt;&amp;gt;" style="html=1;verticalAlign=bottom;labelBackgroundColor=none;endArrow=open;endFill=0;dashed=1;rounded=0;entryX=0.088;entryY=0.171;entryDx=0;entryDy=0;entryPerimeter=0;exitX=1;exitY=0.5;exitDx=0;exitDy=0;" parent="JW3XTQ6Gc6_xEJs22Doc-1" source="JW3XTQ6Gc6_xEJs22Doc-8" target="JW3XTQ6Gc6_xEJs22Doc-9" edge="1">
          <mxGeometry width="160" relative="1" as="geometry">
            <mxPoint x="180" y="50" as="sourcePoint" />
            <mxPoint x="340" y="50" as="targetPoint" />
          </mxGeometry>
        </mxCell>
        <mxCell id="JW3XTQ6Gc6_xEJs22Doc-22" value="&amp;lt;&amp;lt;extend&amp;gt;&amp;gt;" style="html=1;verticalAlign=bottom;labelBackgroundColor=none;endArrow=open;endFill=0;dashed=1;rounded=0;exitX=1;exitY=1;exitDx=0;exitDy=0;entryX=0.5;entryY=1;entryDx=0;entryDy=0;" parent="JW3XTQ6Gc6_xEJs22Doc-1" source="JW3XTQ6Gc6_xEJs22Doc-11" target="JW3XTQ6Gc6_xEJs22Doc-9" edge="1">
          <mxGeometry width="160" relative="1" as="geometry">
            <mxPoint x="120" y="380" as="sourcePoint" />
            <mxPoint x="280" y="380" as="targetPoint" />
          </mxGeometry>
        </mxCell>
        <mxCell id="NzmNWqqSm9omUXP1DXE9-1" value="&amp;lt;&amp;lt;include&amp;gt;&amp;gt;" style="html=1;verticalAlign=bottom;labelBackgroundColor=none;endArrow=open;endFill=0;dashed=1;rounded=0;exitX=0.5;exitY=0;exitDx=0;exitDy=0;entryX=0.5;entryY=1;entryDx=0;entryDy=0;" edge="1" parent="JW3XTQ6Gc6_xEJs22Doc-1" source="JW3XTQ6Gc6_xEJs22Doc-13" target="JW3XTQ6Gc6_xEJs22Doc-12">
          <mxGeometry width="160" relative="1" as="geometry">
            <mxPoint x="230" y="450" as="sourcePoint" />
            <mxPoint x="390" y="450" as="targetPoint" />
          </mxGeometry>
        </mxCell>
        <mxCell id="NzmNWqqSm9omUXP1DXE9-2" value="&amp;lt;&amp;lt;include&amp;gt;&amp;gt;" style="html=1;verticalAlign=bottom;labelBackgroundColor=none;endArrow=open;endFill=0;dashed=1;rounded=0;exitX=1;exitY=0;exitDx=0;exitDy=0;entryX=0.5;entryY=1;entryDx=0;entryDy=0;" edge="1" parent="JW3XTQ6Gc6_xEJs22Doc-1" source="JW3XTQ6Gc6_xEJs22Doc-13" target="JW3XTQ6Gc6_xEJs22Doc-9">
          <mxGeometry width="160" relative="1" as="geometry">
            <mxPoint x="240" y="470" as="sourcePoint" />
            <mxPoint x="400" y="470" as="targetPoint" />
          </mxGeometry>
        </mxCell>
        <mxCell id="JW3XTQ6Gc6_xEJs22Doc-2" value="用户" style="shape=umlActor;verticalLabelPosition=bottom;verticalAlign=top;html=1;" parent="1" vertex="1">
          <mxGeometry x="200" y="360" width="30" height="60" as="geometry" />
        </mxCell>
        <mxCell id="JW3XTQ6Gc6_xEJs22Doc-3" value="值班员" style="shape=umlActor;verticalLabelPosition=bottom;verticalAlign=top;html=1;" parent="1" vertex="1">
          <mxGeometry x="200" y="530" width="30" height="60" as="geometry" />
        </mxCell>
        <mxCell id="JW3XTQ6Gc6_xEJs22Doc-4" value="管理员" style="shape=umlActor;verticalLabelPosition=bottom;verticalAlign=top;html=1;" parent="1" vertex="1">
          <mxGeometry x="200" y="730" width="30" height="60" as="geometry" />
        </mxCell>
        <mxCell id="JW3XTQ6Gc6_xEJs22Doc-14" value="" style="endArrow=classic;html=1;rounded=0;exitX=0.5;exitY=0.5;exitDx=0;exitDy=0;exitPerimeter=0;entryX=0;entryY=0.5;entryDx=0;entryDy=0;" parent="1" source="JW3XTQ6Gc6_xEJs22Doc-2" target="JW3XTQ6Gc6_xEJs22Doc-8" edge="1">
          <mxGeometry width="50" height="50" relative="1" as="geometry">
            <mxPoint x="450" y="650" as="sourcePoint" />
            <mxPoint x="500" y="600" as="targetPoint" />
          </mxGeometry>
        </mxCell>
        <mxCell id="JW3XTQ6Gc6_xEJs22Doc-15" value="" style="endArrow=classic;html=1;rounded=0;exitX=0.5;exitY=0.5;exitDx=0;exitDy=0;exitPerimeter=0;entryX=0;entryY=0.5;entryDx=0;entryDy=0;" parent="1" source="JW3XTQ6Gc6_xEJs22Doc-2" target="JW3XTQ6Gc6_xEJs22Doc-10" edge="1">
          <mxGeometry width="50" height="50" relative="1" as="geometry">
            <mxPoint x="450" y="650" as="sourcePoint" />
            <mxPoint x="500" y="600" as="targetPoint" />
          </mxGeometry>
        </mxCell>
        <mxCell id="JW3XTQ6Gc6_xEJs22Doc-16" value="" style="endArrow=classic;html=1;rounded=0;exitX=0.5;exitY=0.5;exitDx=0;exitDy=0;exitPerimeter=0;entryX=0;entryY=0.5;entryDx=0;entryDy=0;" parent="1" source="JW3XTQ6Gc6_xEJs22Doc-2" target="JW3XTQ6Gc6_xEJs22Doc-9" edge="1">
          <mxGeometry width="50" height="50" relative="1" as="geometry">
            <mxPoint x="450" y="650" as="sourcePoint" />
            <mxPoint x="500" y="600" as="targetPoint" />
          </mxGeometry>
        </mxCell>
        <mxCell id="JW3XTQ6Gc6_xEJs22Doc-17" value="" style="endArrow=classic;html=1;rounded=0;exitX=0.5;exitY=0.5;exitDx=0;exitDy=0;exitPerimeter=0;entryX=0;entryY=0.5;entryDx=0;entryDy=0;" parent="1" source="JW3XTQ6Gc6_xEJs22Doc-2" target="JW3XTQ6Gc6_xEJs22Doc-11" edge="1">
          <mxGeometry width="50" height="50" relative="1" as="geometry">
            <mxPoint x="450" y="650" as="sourcePoint" />
            <mxPoint x="500" y="600" as="targetPoint" />
          </mxGeometry>
        </mxCell>
        <mxCell id="JW3XTQ6Gc6_xEJs22Doc-18" value="" style="endArrow=classic;html=1;rounded=0;exitX=0.5;exitY=0.5;exitDx=0;exitDy=0;exitPerimeter=0;entryX=0;entryY=0.5;entryDx=0;entryDy=0;" parent="1" source="JW3XTQ6Gc6_xEJs22Doc-3" target="JW3XTQ6Gc6_xEJs22Doc-12" edge="1">
          <mxGeometry width="50" height="50" relative="1" as="geometry">
            <mxPoint x="450" y="650" as="sourcePoint" />
            <mxPoint x="500" y="600" as="targetPoint" />
          </mxGeometry>
        </mxCell>
        <mxCell id="JW3XTQ6Gc6_xEJs22Doc-19" value="" style="endArrow=classic;html=1;rounded=0;exitX=0.5;exitY=0.5;exitDx=0;exitDy=0;exitPerimeter=0;entryX=0;entryY=0.5;entryDx=0;entryDy=0;" parent="1" source="JW3XTQ6Gc6_xEJs22Doc-4" target="JW3XTQ6Gc6_xEJs22Doc-13" edge="1">
          <mxGeometry width="50" height="50" relative="1" as="geometry">
            <mxPoint x="450" y="650" as="sourcePoint" />
            <mxPoint x="500" y="600" as="targetPoint" />
          </mxGeometry>
        </mxCell>
        <mxCell id="JW3XTQ6Gc6_xEJs22Doc-20" value="" style="endArrow=classic;html=1;rounded=0;exitX=0.5;exitY=0.5;exitDx=0;exitDy=0;exitPerimeter=0;entryX=0;entryY=0.5;entryDx=0;entryDy=0;" parent="1" source="JW3XTQ6Gc6_xEJs22Doc-4" target="JW3XTQ6Gc6_xEJs22Doc-12" edge="1">
          <mxGeometry width="50" height="50" relative="1" as="geometry">
            <mxPoint x="450" y="650" as="sourcePoint" />
            <mxPoint x="500" y="600" as="targetPoint" />
          </mxGeometry>
        </mxCell>
      </root>
    </mxGraphModel>
  </diagram>
</mxfile>
